<svg xmlns="http://www.w3.org/2000/svg" xmlns:xlink="http://www.w3.org/1999/xlink" width="500" zoomAndPan="magnify" viewBox="0 0 375 374.999991" height="500" preserveAspectRatio="xMidYMid meet" version="1.0"><defs><g/><clipPath id="690d3d7e5c"><path d="M 2.691406 2.691406 L 372.308594 2.691406 L 372.308594 372.308594 L 2.691406 372.308594 Z M 2.691406 2.691406 " clip-rule="nonzero"/></clipPath><clipPath id="b9f2456744"><path d="M 187.5 2.691406 C 85.433594 2.691406 2.691406 85.433594 2.691406 187.5 C 2.691406 289.566406 85.433594 372.308594 187.5 372.308594 C 289.566406 372.308594 372.308594 289.566406 372.308594 187.5 C 372.308594 85.433594 289.566406 2.691406 187.5 2.691406 Z M 187.5 2.691406 " clip-rule="nonzero"/></clipPath></defs><g clip-path="url(#690d3d7e5c)"><g clip-path="url(#b9f2456744)"><path fill="#000000" d="M 2.691406 2.691406 L 372.308594 2.691406 L 372.308594 372.308594 L 2.691406 372.308594 Z M 2.691406 2.691406 " fill-opacity="1" fill-rule="nonzero"/></g></g><g fill="#f4b324" fill-opacity="1"><g transform="translate(46.27472, 306.400606)"><g><path d="M 242.515625 -179.0625 L 242.390625 -177.875 C 242.117188 -175.539062 241.082031 -173.421875 239.28125 -171.515625 L 293.0625 -165.328125 C 290.9375 -162.941406 288.054688 -161.957031 284.421875 -162.375 L 172.953125 -175.1875 L 172.734375 -173.25 L 143.125 -176.65625 L 142.453125 -170.796875 L 129.1875 -172.328125 L 128.296875 -164.53125 L 141.5625 -163 L 140.890625 -157.15625 L 137.375 -157.5625 L 136.703125 -151.71875 L 135.140625 -151.90625 L 134.953125 -150.34375 L 238.625 -138.421875 C 241.226562 -138.117188 243.351562 -137.085938 245 -135.328125 L 245.765625 -135.234375 C 246.953125 -134.046875 247.84375 -132.628906 248.4375 -130.984375 L 246.09375 -131.265625 C 246.757812 -130.117188 246.988281 -128.632812 246.78125 -126.8125 L 246.375 -123.3125 L 244.8125 -123.5 L 244.59375 -121.5625 L 254.734375 -120.390625 L 253.828125 -112.59375 L 244.859375 -113.625 L 244.421875 -109.734375 L 246.765625 -109.46875 L 246.09375 -103.609375 L 247.25 -103.46875 L 247.015625 -101.53125 L 250.53125 -101.125 L 249.859375 -95.265625 L 244.015625 -95.9375 L 243.796875 -93.984375 L 223.90625 -96.28125 L 223.015625 -88.5 L 218.34375 -89.03125 L 217.671875 -83.1875 L 247.296875 -79.78125 L 246.390625 -71.96875 L 235.46875 -73.21875 L 234.9375 -68.546875 C 234.789062 -67.253906 234.546875 -66.234375 234.203125 -65.484375 L 233.421875 -65.578125 C 232.046875 -62.828125 230.257812 -61.054688 228.0625 -60.265625 L 220.265625 -61.171875 C 218.847656 -60.273438 216.972656 -59.960938 214.640625 -60.234375 L 110.953125 -72.15625 L 110.46875 -67.859375 L 122.15625 -66.515625 L 121.703125 -62.625 L 139.25 -60.59375 L 138.578125 -54.75 L 101.9375 -58.96875 L 101.5 -55.0625 L 135.015625 -51.203125 L 134.34375 -45.375 L 109.015625 -48.296875 L 108.78125 -46.34375 L 128.28125 -44.09375 L 127.390625 -36.296875 L 116.46875 -37.5625 L 115.578125 -29.765625 L 120.640625 -29.171875 L 120.40625 -27.21875 L 118.0625 -27.5 L 117.171875 -19.703125 L 123.421875 -18.984375 L 123.203125 -17.046875 L 120.46875 -17.359375 L 120.234375 -15.40625 L 114.78125 -16.03125 L 114.34375 -12.125 L 119.796875 -11.5 L 119.34375 -7.609375 L 113.890625 -8.234375 L 113.21875 -2.390625 L 131.53125 -0.28125 L 131.3125 1.671875 L 143.390625 3.0625 L 143.0625 5.78125 C 143.039062 6.039062 142.957031 6.226562 142.8125 6.34375 C 142.664062 6.457031 142.578125 6.644531 142.546875 6.90625 L 175.296875 10.671875 C 175.203125 11.453125 174.992188 12.085938 174.671875 12.578125 L 120.109375 6.296875 C 119.328125 8.585938 117.675781 10.378906 115.15625 11.671875 L 143.21875 14.890625 C 141.800781 15.773438 139.921875 16.082031 137.578125 15.8125 L 63.125 7.25 C 60.800781 6.988281 59.046875 6.265625 57.859375 5.078125 L 29.40625 1.8125 C 27.738281 0.289062 26.53125 -1.820312 25.78125 -4.53125 L 79.96875 1.6875 C 80.0625 0.914062 80.007812 0.25 79.8125 -0.3125 L 47.453125 -4.03125 L 47.90625 -7.921875 L 35.84375 -9.3125 L 36.0625 -11.265625 L 17.71875 -13.359375 L 18.390625 -19.203125 L 23.859375 -18.578125 L 24.3125 -22.46875 L 18.84375 -23.09375 L 19.28125 -27 L 24.75 -26.375 L 24.984375 -28.328125 L 27.71875 -28.015625 L 27.9375 -29.953125 L 21.6875 -30.671875 L 22.578125 -38.46875 L 24.921875 -38.203125 L 25.15625 -40.15625 L 20.09375 -40.734375 L 20.984375 -48.53125 L 31.890625 -47.28125 L 32.78125 -55.078125 L 13.296875 -57.3125 L 13.53125 -59.265625 L 38.875 -56.359375 L 39.546875 -62.1875 L 6.03125 -66.03125 L 6.46875 -69.9375 L 43.09375 -65.734375 L 43.765625 -71.578125 L 26.234375 -73.59375 L 26.6875 -77.484375 L 15 -78.828125 L 15.671875 -84.6875 L 23.453125 -83.796875 L 24.125 -89.640625 L 24.90625 -89.546875 L 25.796875 -97.328125 L 36.703125 -96.078125 L 37.609375 -103.890625 L 8 -107.296875 L 8.671875 -113.140625 L 13.34375 -112.59375 L 14.234375 -120.375 L 34.109375 -118.09375 L 34.328125 -120.046875 L 40.171875 -119.375 L 40.84375 -125.234375 L 37.328125 -125.640625 L 37.5625 -127.578125 L 36.40625 -127.703125 L 37.078125 -133.5625 L 34.734375 -133.84375 L 35.171875 -137.734375 L 44.140625 -136.703125 L 45.046875 -144.5 L 34.90625 -145.65625 L 35.125 -147.59375 L 36.6875 -147.421875 L 37.578125 -155.234375 L 39.53125 -155 L 39.984375 -158.890625 L 39.203125 -158.984375 L 39.65625 -162.875 L 41.21875 -162.703125 L 41.890625 -168.546875 L 45.390625 -168.140625 L 46.0625 -173.984375 L 32.8125 -175.5 L 33.703125 -183.296875 L 46.953125 -181.78125 L 47.625 -187.640625 L 77.25 -184.234375 L 77.921875 -190.0625 L 24.125 -196.25 L 25.015625 -204.0625 L 84.265625 -197.25 L 84.9375 -203.078125 L 27.65625 -209.65625 L 28.109375 -213.5625 L 29.65625 -213.390625 L 30.109375 -217.28125 L 63.25 -213.46875 L 64.140625 -221.28125 L 49.71875 -222.9375 L 50.625 -230.734375 L 57.234375 -229.96875 L 58.125 -237.75 L 48 -238.921875 L 48.890625 -246.71875 L 50.0625 -246.578125 L 50.734375 -252.4375 L 47.21875 -252.84375 L 47.890625 -258.671875 L 49.859375 -258.453125 L 50.046875 -260.015625 C 50.160156 -261.054688 50.375 -261.816406 50.6875 -262.296875 L 35.09375 -264.09375 C 35.5 -265.375 36.078125 -266.425781 36.828125 -267.25 C 37.585938 -268.082031 38.40625 -268.847656 39.28125 -269.546875 L 36.15625 -269.90625 C 38.414062 -271.226562 40.710938 -271.753906 43.046875 -271.484375 L 239.484375 -248.90625 C 242.085938 -248.601562 244.207031 -247.566406 245.84375 -245.796875 L 248.953125 -245.4375 C 250.617188 -243.925781 251.691406 -241.828125 252.171875 -239.140625 L 267.390625 -237.390625 C 267.585938 -236.847656 267.628906 -236.054688 267.515625 -235.015625 L 267.328125 -233.453125 L 265.375 -233.671875 L 264.703125 -227.84375 L 268.203125 -227.4375 L 267.53125 -221.578125 L 266.375 -221.71875 L 265.484375 -213.921875 L 275.609375 -212.75 L 274.71875 -204.96875 L 268.09375 -205.734375 L 267.1875 -197.9375 L 281.609375 -196.28125 L 280.71875 -188.46875 L 247.59375 -192.28125 L 247.140625 -188.390625 L 245.578125 -188.5625 L 245.125 -184.65625 L 302.421875 -178.078125 L 301.75 -172.25 Z M 242.515625 -179.0625 "/></g></g></g></svg>